<svg t="1701182633045" class="icon" viewBox="0 0 1024 1024" version="1.1" xmlns="http://www.w3.org/2000/svg" p-id="4302" width="32" height="32"><path d="M953.107692 890.092308h-31.507692v-677.415385a15.753846 15.753846 0 0 0-15.753846-15.753846h-157.538462a15.753846 15.753846 0 0 0-15.753846 15.753846v677.415385h-126.030769v-425.353846a15.753846 15.753846 0 0 0-15.753846-15.753847h-157.538462a15.753846 15.753846 0 0 0-15.753846 15.753847v425.353846h-126.030769v-173.292308a15.753846 15.753846 0 0 0-15.753846-15.753846h-157.538462a15.753846 15.753846 0 0 0-15.753846 15.753846v173.292308h-31.507692a31.507692 31.507692 0 0 0 0 63.015384h882.215384a31.507692 31.507692 0 0 0 0-63.015384z" fill="#e6e6e6" p-id="4303"></path><path d="M196.923077 582.892308a39.227077 39.227077 0 0 0 27.884308-11.500308L606.523077 189.046154v118.153846a15.753846 15.753846 0 0 0 15.753846 15.753846h31.507692a15.753846 15.753846 0 0 0 15.753847-15.753846v-220.553846a15.753846 15.753846 0 0 0-15.753847-15.753846h-220.553846a15.753846 15.753846 0 0 0-15.753846 15.753846v31.507692a15.753846 15.753846 0 0 0 15.753846 15.753846H551.384615L169.038769 515.623385a39.699692 39.699692 0 0 0 0 55.768615 39.227077 39.227077 0 0 0 27.884308 11.500308z" fill="#e6e6e6" p-id="4304"></path></svg>