<svg xmlns="http://www.w3.org/2000/svg" xmlns:xlink="http://www.w3.org/1999/xlink" id="visual" viewBox="0 0 900 600" width="900" height="600" version="1.1"><rect x="0" y="0" width="900" height="600" fill="#4FACF7"/><defs><linearGradient id="grad1_0" x1="33.3%" y1="0%" x2="100%" y2="100%"><stop offset="20%" stop-color="#6600ff" stop-opacity="1"/><stop offset="80%" stop-color="#6600ff" stop-opacity="1"/></linearGradient></defs><defs><linearGradient id="grad1_1" x1="33.3%" y1="0%" x2="100%" y2="100%"><stop offset="20%" stop-color="#6600ff" stop-opacity="1"/><stop offset="80%" stop-color="#0063ff" stop-opacity="1"/></linearGradient></defs><defs><linearGradient id="grad1_2" x1="33.3%" y1="0%" x2="100%" y2="100%"><stop offset="20%" stop-color="#008cff" stop-opacity="1"/><stop offset="80%" stop-color="#0063ff" stop-opacity="1"/></linearGradient></defs><defs><linearGradient id="grad1_3" x1="33.3%" y1="0%" x2="100%" y2="100%"><stop offset="20%" stop-color="#008cff" stop-opacity="1"/><stop offset="80%" stop-color="#4facf7" stop-opacity="1"/></linearGradient></defs><defs><linearGradient id="grad2_0" x1="0%" y1="0%" x2="66.7%" y2="100%"><stop offset="20%" stop-color="#6600ff" stop-opacity="1"/><stop offset="80%" stop-color="#6600ff" stop-opacity="1"/></linearGradient></defs><defs><linearGradient id="grad2_1" x1="0%" y1="0%" x2="66.7%" y2="100%"><stop offset="20%" stop-color="#0063ff" stop-opacity="1"/><stop offset="80%" stop-color="#6600ff" stop-opacity="1"/></linearGradient></defs><defs><linearGradient id="grad2_2" x1="0%" y1="0%" x2="66.7%" y2="100%"><stop offset="20%" stop-color="#0063ff" stop-opacity="1"/><stop offset="80%" stop-color="#008cff" stop-opacity="1"/></linearGradient></defs><defs><linearGradient id="grad2_3" x1="0%" y1="0%" x2="66.7%" y2="100%"><stop offset="20%" stop-color="#4facf7" stop-opacity="1"/><stop offset="80%" stop-color="#008cff" stop-opacity="1"/></linearGradient></defs><g transform="translate(900, 0)"><path d="M0 486.7C-85.8 474.4 -171.5 462 -243.4 421.5C-315.2 381.1 -373.1 312.4 -411.4 237.5C-449.6 162.6 -468.2 81.3 -486.7 0L0 0Z" fill="#009dff"/><path d="M0 365.1C-64.3 355.8 -128.7 346.5 -182.5 316.2C-236.4 285.8 -279.8 234.3 -308.5 178.1C-337.2 121.9 -351.1 61 -365.1 0L0 0Z" fill="#0079ff"/><path d="M0 243.4C-42.9 237.2 -85.8 231 -121.7 210.8C-157.6 190.5 -186.6 156.2 -205.7 118.8C-224.8 81.3 -234.1 40.6 -243.4 0L0 0Z" fill="#3745ff"/><path d="M0 121.7C-21.4 118.6 -42.9 115.5 -60.8 105.4C-78.8 95.3 -93.3 78.1 -102.8 59.4C-112.4 40.6 -117 20.3 -121.7 0L0 0Z" fill="#6600ff"/></g><g transform="translate(0, 600)"><path d="M0 -486.7C91.8 -477.9 183.5 -469 243.4 -421.5C303.2 -374.1 331.1 -288.2 366.3 -211.5C401.6 -134.8 444.2 -67.4 486.7 0L0 0Z" fill="#009dff"/><path d="M0 -365.1C68.8 -358.4 137.7 -351.7 182.5 -316.2C227.4 -280.6 248.3 -216.1 274.7 -158.6C301.2 -101.1 333.1 -50.6 365.1 0L0 0Z" fill="#0079ff"/><path d="M0 -243.4C45.9 -238.9 91.8 -234.5 121.7 -210.8C151.6 -187.1 165.5 -144.1 183.2 -105.8C200.8 -67.4 222.1 -33.7 243.4 0L0 0Z" fill="#3745ff"/><path d="M0 -121.7C22.9 -119.5 45.9 -117.2 60.8 -105.4C75.8 -93.5 82.8 -72 91.6 -52.9C100.4 -33.7 111 -16.9 121.7 0L0 0Z" fill="#6600ff"/></g></svg>