<svg xmlns="http://www.w3.org/2000/svg" xmlns:xlink="http://www.w3.org/1999/xlink" id="visual" viewBox="0 0 900 600" width="900" height="600" version="1.1"><rect width="900" height="600" fill="#001122"/><g><g transform="translate(597 60)"><path d="M0 -147L127.3 -73.5L127.3 73.5L0 147L-127.3 73.5L-127.3 -73.5Z" fill="none" stroke="#715DF2" stroke-width="2"/></g><g transform="translate(47 51)"><path d="M0 -108L93.5 -54L93.5 54L0 108L-93.5 54L-93.5 -54Z" fill="none" stroke="#715DF2" stroke-width="2"/></g><g transform="translate(217 370)"><path d="M0 -98L84.9 -49L84.9 49L0 98L-84.9 49L-84.9 -49Z" fill="none" stroke="#715DF2" stroke-width="2"/></g><g transform="translate(595 521)"><path d="M0 -112L97 -56L97 56L0 112L-97 56L-97 -56Z" fill="none" stroke="#715DF2" stroke-width="2"/></g><g transform="translate(20 598)"><path d="M0 -118L102.2 -59L102.2 59L0 118L-102.2 59L-102.2 -59Z" fill="none" stroke="#715DF2" stroke-width="2"/></g><g transform="translate(890 328)"><path d="M0 -137L118.6 -68.5L118.6 68.5L0 137L-118.6 68.5L-118.6 -68.5Z" fill="none" stroke="#715DF2" stroke-width="2"/></g></g></svg>